<mxfile host="app.diagrams.net" agent="Mozilla/5.0 (Windows NT 10.0; Win64; x64) AppleWebKit/537.36 (KHTML, like Gecko) Chrome/133.0.0.0 Safari/537.36" version="26.0.16">
  <diagram name="Страница — 1" id="dqRWkBIB7Zv8lyWxam82">
    <mxGraphModel dx="2440" dy="1292" grid="1" gridSize="10" guides="1" tooltips="1" connect="1" arrows="1" fold="1" page="1" pageScale="1" pageWidth="827" pageHeight="1169" math="0" shadow="0">
      <root>
        <mxCell id="0" />
        <mxCell id="1" parent="0" />
        <mxCell id="P8F0VEBTFIbNjGWBx2y0-1" style="rounded=0;orthogonalLoop=1;jettySize=auto;html=1;exitX=0.5;exitY=0.5;exitDx=0;exitDy=0;exitPerimeter=0;entryX=0.38;entryY=0.913;entryDx=0;entryDy=0;entryPerimeter=0;edgeStyle=orthogonalEdgeStyle;curved=1;" edge="1" parent="1" source="P8F0VEBTFIbNjGWBx2y0-3" target="P8F0VEBTFIbNjGWBx2y0-5">
          <mxGeometry relative="1" as="geometry">
            <Array as="points">
              <mxPoint x="218" y="552.5" />
            </Array>
          </mxGeometry>
        </mxCell>
        <mxCell id="P8F0VEBTFIbNjGWBx2y0-2" style="rounded=0;orthogonalLoop=1;jettySize=auto;html=1;" edge="1" parent="1" source="P8F0VEBTFIbNjGWBx2y0-3" target="P8F0VEBTFIbNjGWBx2y0-7">
          <mxGeometry relative="1" as="geometry" />
        </mxCell>
        <mxCell id="P8F0VEBTFIbNjGWBx2y0-3" value="Покупатель" style="shape=umlActor;verticalLabelPosition=bottom;verticalAlign=top;html=1;outlineConnect=0;" vertex="1" parent="1">
          <mxGeometry x="60" y="522.5" width="30" height="60" as="geometry" />
        </mxCell>
        <mxCell id="P8F0VEBTFIbNjGWBx2y0-4" style="edgeStyle=orthogonalEdgeStyle;rounded=0;orthogonalLoop=1;jettySize=auto;html=1;" edge="1" parent="1" source="P8F0VEBTFIbNjGWBx2y0-5" target="P8F0VEBTFIbNjGWBx2y0-11">
          <mxGeometry relative="1" as="geometry" />
        </mxCell>
        <mxCell id="P8F0VEBTFIbNjGWBx2y0-52" style="rounded=0;orthogonalLoop=1;jettySize=auto;html=1;exitX=0.854;exitY=0.164;exitDx=0;exitDy=0;exitPerimeter=0;" edge="1" parent="1" source="P8F0VEBTFIbNjGWBx2y0-5" target="P8F0VEBTFIbNjGWBx2y0-47">
          <mxGeometry relative="1" as="geometry" />
        </mxCell>
        <mxCell id="P8F0VEBTFIbNjGWBx2y0-59" style="edgeStyle=orthogonalEdgeStyle;rounded=0;orthogonalLoop=1;jettySize=auto;html=1;curved=1;entryX=0.089;entryY=0.337;entryDx=0;entryDy=0;entryPerimeter=0;" edge="1" parent="1" target="P8F0VEBTFIbNjGWBx2y0-57">
          <mxGeometry relative="1" as="geometry">
            <mxPoint x="250" y="450" as="sourcePoint" />
            <Array as="points">
              <mxPoint x="260" y="220" />
            </Array>
          </mxGeometry>
        </mxCell>
        <mxCell id="P8F0VEBTFIbNjGWBx2y0-5" value="Веб-сайт аптеки" style="shape=umlBoundary;whiteSpace=wrap;html=1;" vertex="1" parent="1">
          <mxGeometry x="180" y="442.5" width="100" height="80" as="geometry" />
        </mxCell>
        <mxCell id="P8F0VEBTFIbNjGWBx2y0-50" style="edgeStyle=orthogonalEdgeStyle;rounded=0;orthogonalLoop=1;jettySize=auto;html=1;" edge="1" parent="1" source="P8F0VEBTFIbNjGWBx2y0-7" target="P8F0VEBTFIbNjGWBx2y0-49">
          <mxGeometry relative="1" as="geometry" />
        </mxCell>
        <mxCell id="P8F0VEBTFIbNjGWBx2y0-7" value="Интерфейс платежной системы" style="shape=umlBoundary;whiteSpace=wrap;html=1;" vertex="1" parent="1">
          <mxGeometry x="180" y="572.5" width="100" height="80" as="geometry" />
        </mxCell>
        <mxCell id="P8F0VEBTFIbNjGWBx2y0-9" value="База данных заказов" style="ellipse;shape=umlEntity;whiteSpace=wrap;html=1;" vertex="1" parent="1">
          <mxGeometry x="720" y="442.5" width="80" height="80" as="geometry" />
        </mxCell>
        <mxCell id="P8F0VEBTFIbNjGWBx2y0-10" style="rounded=0;orthogonalLoop=1;jettySize=auto;html=1;entryX=0;entryY=0.5;entryDx=0;entryDy=0;dashed=1;endArrow=open;endFill=0;" edge="1" parent="1" source="P8F0VEBTFIbNjGWBx2y0-11" target="P8F0VEBTFIbNjGWBx2y0-9">
          <mxGeometry relative="1" as="geometry" />
        </mxCell>
        <mxCell id="P8F0VEBTFIbNjGWBx2y0-11" value="Выбор" style="ellipse;shape=umlControl;whiteSpace=wrap;html=1;" vertex="1" parent="1">
          <mxGeometry x="390" y="442.5" width="70" height="80" as="geometry" />
        </mxCell>
        <mxCell id="P8F0VEBTFIbNjGWBx2y0-12" style="rounded=0;orthogonalLoop=1;jettySize=auto;html=1;entryX=0.25;entryY=0.1;entryDx=0;entryDy=0;entryPerimeter=0;edgeStyle=orthogonalEdgeStyle;curved=1;" edge="1" parent="1" source="P8F0VEBTFIbNjGWBx2y0-5" target="P8F0VEBTFIbNjGWBx2y0-3">
          <mxGeometry relative="1" as="geometry">
            <Array as="points">
              <mxPoint x="68" y="482.5" />
            </Array>
          </mxGeometry>
        </mxCell>
        <mxCell id="P8F0VEBTFIbNjGWBx2y0-77" style="edgeStyle=orthogonalEdgeStyle;rounded=0;orthogonalLoop=1;jettySize=auto;html=1;" edge="1" parent="1" source="P8F0VEBTFIbNjGWBx2y0-21" target="P8F0VEBTFIbNjGWBx2y0-69">
          <mxGeometry relative="1" as="geometry" />
        </mxCell>
        <mxCell id="P8F0VEBTFIbNjGWBx2y0-21" value="Фармацевт" style="shape=umlActor;verticalLabelPosition=bottom;verticalAlign=top;html=1;outlineConnect=0;" vertex="1" parent="1">
          <mxGeometry x="60" y="700" width="30" height="60" as="geometry" />
        </mxCell>
        <mxCell id="P8F0VEBTFIbNjGWBx2y0-29" style="edgeStyle=orthogonalEdgeStyle;rounded=0;orthogonalLoop=1;jettySize=auto;html=1;" edge="1" parent="1" source="P8F0VEBTFIbNjGWBx2y0-30" target="P8F0VEBTFIbNjGWBx2y0-36">
          <mxGeometry relative="1" as="geometry" />
        </mxCell>
        <mxCell id="P8F0VEBTFIbNjGWBx2y0-30" value="Курьер" style="shape=umlActor;verticalLabelPosition=bottom;verticalAlign=top;html=1;outlineConnect=0;" vertex="1" parent="1">
          <mxGeometry x="60" y="80" width="30" height="60" as="geometry" />
        </mxCell>
        <mxCell id="P8F0VEBTFIbNjGWBx2y0-35" style="edgeStyle=orthogonalEdgeStyle;rounded=0;orthogonalLoop=1;jettySize=auto;html=1;" edge="1" parent="1" source="P8F0VEBTFIbNjGWBx2y0-36" target="P8F0VEBTFIbNjGWBx2y0-38">
          <mxGeometry relative="1" as="geometry" />
        </mxCell>
        <mxCell id="P8F0VEBTFIbNjGWBx2y0-36" value="Яндекс-карты" style="shape=umlBoundary;whiteSpace=wrap;html=1;" vertex="1" parent="1">
          <mxGeometry x="140" y="70" width="100" height="80" as="geometry" />
        </mxCell>
        <mxCell id="P8F0VEBTFIbNjGWBx2y0-79" style="edgeStyle=orthogonalEdgeStyle;rounded=0;orthogonalLoop=1;jettySize=auto;html=1;entryX=0.5;entryY=0;entryDx=0;entryDy=0;dashed=1;endArrow=open;endFill=0;" edge="1" parent="1" source="P8F0VEBTFIbNjGWBx2y0-38" target="P8F0VEBTFIbNjGWBx2y0-48">
          <mxGeometry relative="1" as="geometry" />
        </mxCell>
        <mxCell id="P8F0VEBTFIbNjGWBx2y0-38" value="Дотсавка" style="ellipse;shape=umlControl;whiteSpace=wrap;html=1;" vertex="1" parent="1">
          <mxGeometry x="390" y="70" width="70" height="80" as="geometry" />
        </mxCell>
        <mxCell id="P8F0VEBTFIbNjGWBx2y0-40" value="Банковский счет аптеки" style="ellipse;shape=umlEntity;whiteSpace=wrap;html=1;" vertex="1" parent="1">
          <mxGeometry x="560" y="572.5" width="80" height="80" as="geometry" />
        </mxCell>
        <mxCell id="P8F0VEBTFIbNjGWBx2y0-46" style="edgeStyle=orthogonalEdgeStyle;rounded=0;orthogonalLoop=1;jettySize=auto;html=1;dashed=1;endArrow=open;endFill=0;" edge="1" parent="1" source="P8F0VEBTFIbNjGWBx2y0-47" target="P8F0VEBTFIbNjGWBx2y0-48">
          <mxGeometry relative="1" as="geometry" />
        </mxCell>
        <mxCell id="P8F0VEBTFIbNjGWBx2y0-47" value="Подтверждение заказа" style="ellipse;shape=umlControl;whiteSpace=wrap;html=1;" vertex="1" parent="1">
          <mxGeometry x="380" y="292.5" width="99" height="80" as="geometry" />
        </mxCell>
        <mxCell id="P8F0VEBTFIbNjGWBx2y0-48" value="Заказ" style="ellipse;shape=umlEntity;whiteSpace=wrap;html=1;" vertex="1" parent="1">
          <mxGeometry x="720" y="292.5" width="80" height="80" as="geometry" />
        </mxCell>
        <mxCell id="P8F0VEBTFIbNjGWBx2y0-51" style="edgeStyle=orthogonalEdgeStyle;rounded=0;orthogonalLoop=1;jettySize=auto;html=1;" edge="1" parent="1" source="P8F0VEBTFIbNjGWBx2y0-49" target="P8F0VEBTFIbNjGWBx2y0-40">
          <mxGeometry relative="1" as="geometry" />
        </mxCell>
        <mxCell id="P8F0VEBTFIbNjGWBx2y0-49" value="Оплата&amp;nbsp;" style="ellipse;shape=umlControl;whiteSpace=wrap;html=1;" vertex="1" parent="1">
          <mxGeometry x="390" y="572.5" width="70" height="80" as="geometry" />
        </mxCell>
        <mxCell id="P8F0VEBTFIbNjGWBx2y0-60" style="edgeStyle=orthogonalEdgeStyle;rounded=0;orthogonalLoop=1;jettySize=auto;html=1;dashed=1;endArrow=open;endFill=0;" edge="1" parent="1" source="P8F0VEBTFIbNjGWBx2y0-57" target="P8F0VEBTFIbNjGWBx2y0-58">
          <mxGeometry relative="1" as="geometry" />
        </mxCell>
        <mxCell id="P8F0VEBTFIbNjGWBx2y0-57" value="Регистрация" style="ellipse;shape=umlControl;whiteSpace=wrap;html=1;" vertex="1" parent="1">
          <mxGeometry x="390" y="190" width="80" height="90" as="geometry" />
        </mxCell>
        <mxCell id="P8F0VEBTFIbNjGWBx2y0-58" value="База данных пользователь" style="ellipse;shape=umlEntity;whiteSpace=wrap;html=1;" vertex="1" parent="1">
          <mxGeometry x="559" y="195" width="80" height="80" as="geometry" />
        </mxCell>
        <mxCell id="P8F0VEBTFIbNjGWBx2y0-68" style="edgeStyle=orthogonalEdgeStyle;rounded=0;orthogonalLoop=1;jettySize=auto;html=1;" edge="1" parent="1" source="P8F0VEBTFIbNjGWBx2y0-69" target="P8F0VEBTFIbNjGWBx2y0-71">
          <mxGeometry relative="1" as="geometry" />
        </mxCell>
        <mxCell id="P8F0VEBTFIbNjGWBx2y0-69" value="Интерфейс фармацевта" style="shape=umlBoundary;whiteSpace=wrap;html=1;" vertex="1" parent="1">
          <mxGeometry x="180" y="690" width="100" height="80" as="geometry" />
        </mxCell>
        <mxCell id="P8F0VEBTFIbNjGWBx2y0-70" style="edgeStyle=orthogonalEdgeStyle;rounded=0;orthogonalLoop=1;jettySize=auto;html=1;entryX=0;entryY=0.5;entryDx=0;entryDy=0;endArrow=open;endFill=0;dashed=1;" edge="1" parent="1" source="P8F0VEBTFIbNjGWBx2y0-71" target="P8F0VEBTFIbNjGWBx2y0-72">
          <mxGeometry relative="1" as="geometry" />
        </mxCell>
        <mxCell id="P8F0VEBTFIbNjGWBx2y0-78" style="edgeStyle=orthogonalEdgeStyle;rounded=0;orthogonalLoop=1;jettySize=auto;html=1;entryX=0.5;entryY=1;entryDx=0;entryDy=0;dashed=1;endArrow=open;endFill=0;" edge="1" parent="1" source="P8F0VEBTFIbNjGWBx2y0-71" target="P8F0VEBTFIbNjGWBx2y0-9">
          <mxGeometry relative="1" as="geometry" />
        </mxCell>
        <mxCell id="P8F0VEBTFIbNjGWBx2y0-71" value="Упаковка лекарств" style="ellipse;shape=umlControl;whiteSpace=wrap;html=1;" vertex="1" parent="1">
          <mxGeometry x="390" y="690" width="70" height="80" as="geometry" />
        </mxCell>
        <mxCell id="P8F0VEBTFIbNjGWBx2y0-72" value="Склад лекарств" style="ellipse;shape=umlEntity;whiteSpace=wrap;html=1;" vertex="1" parent="1">
          <mxGeometry x="720" y="780" width="80" height="80" as="geometry" />
        </mxCell>
      </root>
    </mxGraphModel>
  </diagram>
</mxfile>
